<mxfile host="Electron" modified="2023-11-09T16:29:25.013Z" agent="Mozilla/5.0 (Windows NT 10.0; Win64; x64) AppleWebKit/537.36 (KHTML, like Gecko) draw.io/21.6.8 Chrome/114.0.5735.289 Electron/25.5.0 Safari/537.36" etag="DdwFlfjsKg0-GnCpyvUy" version="21.6.8" type="device">
  <diagram name="PÃ¡gina-1" id="65qDK_cVBOeMfHHPYPRh">
    <mxGraphModel dx="567" dy="328" grid="1" gridSize="10" guides="1" tooltips="1" connect="1" arrows="1" fold="1" page="1" pageScale="1" pageWidth="827" pageHeight="1169" math="0" shadow="0">
      <root>
        <mxCell id="0" />
        <mxCell id="1" parent="0" />
        <mxCell id="i1BcOKZAHRppPo7DMuHD-2" value="" style="rhombus;whiteSpace=wrap;html=1;strokeColor=none;fillColor=#FF0000;opacity=50;" vertex="1" parent="1">
          <mxGeometry x="300" y="230" width="30" height="30" as="geometry" />
        </mxCell>
      </root>
    </mxGraphModel>
  </diagram>
</mxfile>
